<?xml version="1.0" encoding="UTF-8"?>
<!-- Generator: visioncortex VTracer 0.6.4 -->
<svg version="1.1" xmlns="http://www.w3.org/2000/svg" width="512" height="512">
<path d="M0 0 C1.21069111 -0.00346153 1.21069111 -0.00346153 2.44584063 -0.006993 C5.17349253 -0.01232265 7.90091235 -0.00328441 10.62855244 0.00558662 C12.59454714 0.00471516 14.56054162 0.00296528 16.52653486 0.00040829 C21.94693542 -0.00408094 27.36725752 0.00396001 32.78764808 0.01396441 C38.62609574 0.02257401 44.4645387 0.01968053 50.30299091 0.01815987 C60.42448386 0.01710943 70.54595108 0.02340255 80.66743755 0.03463554 C95.30153677 0.05086616 109.93562735 0.05610273 124.5697339 0.05861153 C148.31064528 0.06281451 172.05154326 0.07629523 195.79244709 0.09521675 C218.85917813 0.11357976 241.92590551 0.12774985 264.9926424 0.13623238 C266.05880646 0.13662695 266.05880646 0.13662695 267.14650918 0.1370295 C274.28428865 0.1396665 281.42206816 0.14221814 288.55984769 0.14470722 C303.10086674 0.14977991 317.64188554 0.15542242 332.18290424 0.16140938 C332.8515051 0.16168396 333.52010596 0.16195854 334.20896745 0.16224144 C378.8716466 0.18064876 423.53431821 0.2123814 468.19698811 0.24609566 C468.19698811 0.90609566 468.19698811 1.56609566 468.19698811 2.24609566 C469.30296936 2.63505237 469.30296936 2.63505237 470.43129367 3.03186679 C475.52627488 5.26872752 478.56097778 8.3459708 481.19698811 13.24609566 C482.69444497 19.46887511 482.25553439 26.05180671 482.17921162 32.40350533 C482.18485144 34.3752518 482.19399718 36.34699083 482.20633918 38.31870675 C482.23002402 43.72770925 482.20387475 49.13549436 482.16949022 54.54439712 C482.14109803 60.38081863 482.15889483 66.21712284 482.17094135 72.05357552 C482.1872462 83.48234479 482.16098668 94.91064032 482.12051513 106.33933416 C482.0773582 118.97047773 482.07235539 131.60154965 482.07158405 144.23275064 C482.07004221 168.637532 482.02962229 193.04208897 481.96529865 217.44677925 C481.90457562 240.48684098 481.86916179 263.52675429 481.86275959 286.56689644 C481.86255657 287.27696206 481.86235355 287.98702767 481.86214438 288.71861043 C481.86153113 290.86675963 481.86092649 293.01490884 481.86032361 295.16305804 C481.85952045 298.01621104 481.85870418 300.86936403 481.85787964 303.72251701 C481.85758389 304.7785241 481.85758389 304.7785241 481.85728216 305.85586466 C481.85069764 328.50944683 481.82063485 351.16300122 481.787256 373.81655751 C481.77579088 381.77571274 481.7675737 389.73486374 481.76167252 397.69402495 C481.75219997 410.31513397 481.73304132 422.93614395 481.69359782 435.55719796 C481.6757433 441.32586034 481.66258819 447.09442866 481.66227055 452.86312103 C481.66179283 458.13929311 481.64751451 463.41523739 481.62198303 468.69134608 C481.6151362 470.60433159 481.61336626 472.51734309 481.6170679 474.43033728 C481.62130736 477.02266501 481.60726294 479.61426249 481.58847809 482.20651054 C481.59407235 482.95607562 481.59966661 483.7056407 481.60543039 484.47791988 C481.53246817 490.22639697 479.94698993 493.10992472 476.39220536 497.4491359 C468.17302788 505.16085025 459.58973418 504.36473261 448.97747517 504.24850655 C447.01112483 504.25629755 445.04478577 504.26758246 443.07847321 504.28204834 C437.68895964 504.31152355 432.30061678 504.29121751 426.91114116 504.26257491 C421.09373722 504.24034321 415.2764967 504.26424434 409.45910358 504.28225899 C398.06893016 504.31011881 386.67920033 504.29501608 375.28904806 504.26490782 C362.69699275 504.23288953 350.10504063 504.2368091 337.51295806 504.24396763 C312.4646901 504.25800921 287.41665872 504.22705396 262.36845096 504.17472071 C240.11900237 504.12848123 217.86981376 504.11771884 195.62032795 504.1381855 C189.92155118 504.14338961 184.22277441 504.14855966 178.52399731 504.15338135 C177.8223893 504.15397624 177.12078129 504.15457114 176.39791243 504.15518406 C157.79949116 504.1704152 139.20109116 504.15758852 120.60267937 504.13598931 C117.93687163 504.13293145 115.27106386 504.1298969 112.60525608 504.12686729 C110.63779471 504.12459385 110.63779471 504.12459385 108.63058665 504.12227448 C99.38384964 504.11278595 90.13717133 504.11649363 80.89043522 504.12499809 C69.62452879 504.13484672 58.35889133 504.12290368 47.09304653 504.0832095 C41.34415026 504.06345338 35.5956637 504.05326592 29.84674549 504.06899452 C24.58504464 504.08309576 19.32417097 504.06953002 14.06257929 504.03378727 C12.15832277 504.02569003 10.25399101 504.02771215 8.34976242 504.04082499 C-8.88717356 504.14937144 -8.88717356 504.14937144 -14.47562873 498.74495995 C-14.91366518 498.25033473 -15.35170162 497.75570952 -15.80301189 497.24609566 C-17.04051189 496.16328316 -17.04051189 496.16328316 -18.30301189 495.05859566 C-19.80301189 493.24609566 -19.80301189 493.24609566 -19.80301189 490.24609566 C-20.46301189 490.24609566 -21.12301189 490.24609566 -21.80301189 490.24609566 C-21.80301189 332.83609566 -21.80301189 175.42609566 -21.80301189 13.24609566 C-21.14301189 13.24609566 -20.48301189 13.24609566 -19.80301189 13.24609566 C-19.61738689 12.54484566 -19.43176189 11.84359566 -19.24051189 11.12109566 C-15.37419653 3.38846492 -8.283834 -0.05758695 0 0 Z " fill="#133429" transform="translate(25.803011894226074,3.753904342651367)"/>
<path d="M0 0 C9.78993791 7.19004598 15.27054441 15.27490534 18.125 27.1875 C20.14102013 55.73790275 7.14233332 80.58460907 -8.33325195 103.74487305 C-8.78015381 104.41429932 -9.22705566 105.08372559 -9.6875 105.7734375 C-10.08582031 106.3617334 -10.48414063 106.9500293 -10.89453125 107.55615234 C-12.04618743 109.33829473 -12.04618743 109.33829473 -12.875 112.1875 C-12.070625 112.82751953 -12.070625 112.82751953 -11.25 113.48046875 C-5.05895572 118.41904848 1.09292143 123.40414267 7.23388672 128.40478516 C10.88723325 131.3775979 14.55480668 134.32921188 18.25 137.25 C53.46226745 165.37254917 53.46226745 165.37254917 59.67822266 175.79077148 C62.79604821 178.84482192 64.40525158 178.73891371 68.62265015 178.7026825 C69.90385239 178.65456169 69.90385239 178.65456169 71.2109375 178.60546875 C72.10430817 178.59365067 72.99767883 178.58183258 73.91812134 178.56965637 C76.77974763 178.52847528 79.63918288 178.45381105 82.5 178.375 C98.42088099 178.0183176 113.18041111 177.98089993 128.4375 183.25 C129.3241333 183.55236572 130.2107666 183.85473145 131.12426758 184.16625977 C144.15293129 188.78361539 155.71434423 195.04882285 166.125 204.1875 C166.94871094 204.82171875 167.77242188 205.4559375 168.62109375 206.109375 C183.45462263 218.42050973 192.21647856 237.71973621 196.125 256.1875 C196.33125 257.03828125 196.5375 257.8890625 196.75 258.765625 C200.10799879 274.71611926 199.19140451 292.48087556 195.125 308.1875 C194.82698486 309.38705322 194.82698486 309.38705322 194.52294922 310.61083984 C188.58691312 334.18157194 179.18471107 354.61174785 162.125 372.1875 C161.44179688 372.94417969 160.75859375 373.70085937 160.0546875 374.48046875 C146.97542521 388.50085877 126.67370697 398.88022459 107.41796875 399.62109375 C105.04959298 399.64434869 102.68090483 399.6450794 100.3125 399.625 C99.07435547 399.61815186 97.83621094 399.61130371 96.56054688 399.60424805 C87.73248893 399.448931 80.33678635 398.58664107 72.125 395.1875 C71.18140625 394.84847656 70.2378125 394.50945312 69.265625 394.16015625 C50.30295971 386.95946849 32.7774691 374.92687069 17.125 362.1875 C14.03875834 363.58759988 11.33672559 365.37519525 8.56054688 367.30883789 C-7.90313685 378.70865125 -25.40633128 387.38764826 -44.20483398 394.21704102 C-46.02131574 394.87723257 -47.8332286 395.5501027 -49.64086914 396.23413086 C-67.71243754 403.01315042 -86.72749139 405.5684092 -105.875 407.1875 C-106.59171875 407.25372559 -107.3084375 407.31995117 -108.046875 407.38818359 C-142.25718126 410.23604785 -179.70031234 394.30998795 -205.4375 372.875 C-222.6814051 358.10634614 -236.1398988 341.29732791 -244.875 320.1875 C-248.15500599 320.71653322 -251.18267651 321.60369288 -254.3125 322.6875 C-262.25269046 325.36470237 -270.54521827 326.63076058 -278.625 323.9375 C-286.87063319 319.49754367 -286.87063319 319.49754367 -289.3125 316.3125 C-290.14574263 313.16469452 -289.90617468 311.28102403 -288.875 308.1875 C-283.37469479 302.94502159 -277.14092376 303.56041511 -269.875 303.5 C-267.56243787 303.45769703 -265.24993104 303.41222859 -262.9375 303.36328125 C-261.91785156 303.35208252 -260.89820313 303.34088379 -259.84765625 303.3293457 C-256.78947067 303.18341881 -253.8823901 302.74858442 -250.875 302.1875 C-250.98328125 300.91519531 -250.98328125 300.91519531 -251.09375 299.6171875 C-253.9991943 262.89559977 -246.29389547 224.73163117 -222.6875 195.4765625 C-214.79776735 186.35405913 -204.54399262 177.03947037 -191.85717773 176.02636719 C-189.34214577 175.98042077 -186.82791744 175.95217786 -184.3125 175.9375 C-183.02762695 175.9065625 -183.02762695 175.9065625 -181.71679688 175.875 C-171.78165705 175.81519479 -163.42072801 179.07165225 -154.5625 183.3125 C-153.74144775 183.70501953 -152.92039551 184.09753906 -152.07446289 184.50195312 C-140.63202057 190.11518449 -131.18236597 197.51739512 -121.875 206.1875 C-119.89871751 207.88654848 -117.89459347 209.5399369 -115.875 211.1875 C-112.62292908 209.77011511 -110.56138933 208.06223588 -108.125 205.5 C-105.48490711 202.78670676 -102.81585848 200.20895694 -99.9375 197.75 C-93.3807153 192.09316614 -87.44856287 185.92221758 -81.8203125 179.3515625 C-79.43472999 176.69772172 -76.91381439 174.19294834 -74.375 171.6875 C-69.99169807 167.34980383 -65.86328033 162.88913128 -61.875 158.1875 C-60.98527227 157.16068017 -60.09456088 156.13471224 -59.203125 155.109375 C-53.83218687 148.91472769 -48.5660132 142.64720873 -43.4375 136.25 C-42.95385986 135.64792725 -42.47021973 135.04585449 -41.97192383 134.42553711 C-38.79830914 130.4393624 -35.80730808 126.35446411 -32.875 122.1875 C-34.45678773 118.06320684 -37.46287736 115.6015025 -40.6875 112.75 C-41.87008166 111.67492576 -43.05102376 110.59804574 -44.23046875 109.51953125 C-44.83552246 108.9673291 -45.44057617 108.41512695 -46.06396484 107.84619141 C-59.42761126 95.60669104 -70.92696052 82.64538211 -76.875 65.1875 C-77.23207031 64.15238281 -77.58914062 63.11726563 -77.95703125 62.05078125 C-82.28203999 48.56043484 -80.26926982 33.73251227 -73.88525391 21.32250977 C-66.51512443 7.87730373 -54.66413412 -1.05826823 -40.08642578 -5.42285156 C-26.43179584 -9.01702733 -12.08967366 -7.6044659 0 0 Z " fill="#FBFBFB" transform="translate(301.875,55.8125)"/>
<path d="M0 0 C3.81471322 1.5756379 6.21285654 3.97749894 9.10058594 6.8894043 C9.59550537 7.38563797 10.0904248 7.88187164 10.6003418 8.3931427 C12.23300142 10.03228389 13.85856363 11.67828727 15.484375 13.32421875 C16.62483326 14.47095376 17.76581243 15.61717091 18.9072876 16.76289368 C21.91365073 19.78255674 24.91440675 22.8077255 27.91357422 25.83453369 C32.69791898 30.66197063 37.48885069 35.48284431 42.28327179 40.30027199 C43.94731029 41.97442866 45.60782892 43.6520165 47.26800537 45.33000183 C52.13515208 50.23554944 57.01843339 55.06466597 62.30316162 59.52705383 C65.54136781 62.33798942 68.49959422 65.44002504 71.5 68.5 C75.97092284 73.01947185 80.45299519 77.42580628 85.3125 81.53125 C87.12940433 83.11262969 88.8121128 84.78197196 90.5 86.5 C93.44600215 89.49234375 96.52983007 92.25324172 99.7109375 94.9921875 C101.93625143 96.94408402 104.11273908 98.94274806 106.2824707 100.95605469 C116.35643071 110.30242378 116.35643071 110.30242378 127.3125 118.5625 C127.869375 119.036875 128.42625 119.51125 129 120 C129 120.99 129 121.98 129 123 C127.67749023 124.22338867 127.67749023 124.22338867 125.80859375 125.41796875 C125.11926758 125.86358154 124.42994141 126.30919434 123.71972656 126.76831055 C122.59002441 127.47080933 122.59002441 127.47080933 121.4375 128.1875 C120.66245117 128.67581299 119.88740234 129.16412598 119.08886719 129.66723633 C105.99888365 137.82373506 92.86498097 143.89768129 78.34741211 149.14135742 C76.8759024 149.67961011 75.40950684 150.23229864 73.95141602 150.8059082 C68.67338285 152.881718 63.33146755 154.27514701 57.8125 155.5625 C56.95591797 155.77068359 56.09933594 155.97886719 55.21679688 156.19335938 C42.19457002 159.27274438 29.58554184 160.44125615 16.25 160.4375 C15.44140533 160.4385675 14.63281067 160.43963501 13.79971313 160.44073486 C-17.01259955 160.38230132 -45.61927969 152.22884191 -70 133 C-70.94875 132.25492188 -71.8975 131.50984375 -72.875 130.7421875 C-80.81624672 124.37624244 -87.78975311 117.7318901 -93.875 109.5625 C-94.38458252 108.88018311 -94.89416504 108.19786621 -95.41918945 107.49487305 C-98.99255514 102.60726873 -102.20430901 97.57994545 -105.1875 92.3125 C-105.56181152 91.65386963 -105.93612305 90.99523926 -106.32177734 90.31665039 C-108.20524238 86.87134177 -109.33114852 83.84908197 -110 80 C-109.50636963 79.72140137 -109.01273926 79.44280273 -108.50415039 79.15576172 C-95.66899593 71.85833777 -83.27165007 64.01121599 -71 55.8125 C-70.3094754 55.35204285 -69.61895081 54.89158569 -68.90750122 54.41717529 C-44.35822022 38.02377618 -21.54596792 20.18592343 0 0 Z " fill="#143429" transform="translate(179,288)"/>
<path d="M0 0 C4.14409059 1.70040081 7.24396621 4.64137645 10.5625 7.5625 C11.81810225 8.65469075 13.07462253 9.74582697 14.33203125 10.8359375 C14.95287598 11.37444336 15.5737207 11.91294922 16.21337891 12.46777344 C18.68705053 14.58922234 21.21464102 16.64040558 23.75 18.6875 C28.0971574 22.21757055 32.28518168 25.88592791 36.41796875 29.6640625 C37.84209614 30.95245611 39.27259551 32.23429665 40.72900391 33.48608398 C46.39499389 38.35838061 51.71512979 43.53168883 57 48.8125 C57.87011719 49.67037109 58.74023438 50.52824219 59.63671875 51.41210938 C60.86841797 52.6409082 60.86841797 52.6409082 62.125 53.89453125 C62.87007812 54.63550049 63.61515625 55.37646973 64.3828125 56.13989258 C66 58 66 58 66 60 C64.97261719 60.47308594 63.94523438 60.94617188 62.88671875 61.43359375 C45.20334792 69.78639226 33.24931337 80.52103906 24.90234375 98.34375 C23.73516279 101.77960737 23.29368814 105.22619585 22.875 108.8125 C22.74544922 109.85180664 22.74544922 109.85180664 22.61328125 110.91210938 C22.40283919 112.60733706 22.20058328 114.30357755 22 116 C27.40787385 114.90213575 27.40787385 114.90213575 31 111 C31.50776548 109.11680386 31.96016016 107.21832302 32.375 105.3125 C35.39959494 92.91613061 41.49780155 84.59304766 52.375 77.6875 C59.71048961 73.42050604 66.58386817 70.24728285 75 69 C92.44401252 89.13484423 98.72469866 109.58954436 97 136 C93.15624524 165.27772265 70.56951999 196.78600141 48 215 C35.99650374 205.29921526 24.29914085 195.31490323 13.0078125 184.79296875 C10.40845887 182.37132771 7.77524993 179.9909822 5.125 177.625 C-4.34073341 169.13050634 -13.69508297 160.50358862 -22.55859375 151.37890625 C-24.53436935 149.4537105 -26.53646964 147.66363028 -28.62890625 145.87109375 C-34.82088122 140.49922879 -40.47137256 134.57207977 -46.22265625 128.73828125 C-50.66192644 124.26024015 -55.13947346 119.94579999 -59.92773438 115.84521484 C-64.30498656 111.94756262 -68.37664691 107.72480919 -72.5 103.5625 C-73.4178125 102.64017578 -74.335625 101.71785156 -75.28125 100.76757812 C-77.52315055 98.51400101 -79.762666 96.25810925 -82 94 C-78.08695184 85.77752258 -70.53731471 79.47950478 -64.125 73.15625 C-61.51417297 70.50702846 -59.10020868 67.7205198 -56.6796875 64.8984375 C-54.5070113 62.44280812 -52.1813712 60.16842996 -49.84179688 57.87329102 C-48.07106453 56.07227971 -46.41800711 54.21698313 -44.7734375 52.30078125 C-41.01348231 47.9751427 -37.08245303 43.83174672 -33.125 39.6875 C-27.83946042 34.11615738 -22.78444629 28.49474465 -18.01171875 22.4765625 C-15.89194816 19.86698084 -13.65656828 17.40633268 -11.375 14.9375 C-7.10489473 10.26214748 -3.49057728 5.27514894 0 0 Z " fill="#14342A" transform="translate(276,182)"/>
<path d="M0 0 C32.22760387 -1.05998444 62.37800109 3.72231156 87.375 25.5 C88.93497188 26.9809537 90.47769387 28.48035525 92 30 C92.69609375 30.68449219 93.3921875 31.36898438 94.109375 32.07421875 C112.19557394 51.03668702 116.63906835 76.16883903 116.26953125 101.40234375 C115.3576881 127.91766458 101.30326834 154.04704982 82.63671875 172.3125 C66.51069488 186.1890113 46.81304497 191.18555319 26 190 C1.58932818 187.60066046 -19.7835313 173.15694276 -39 159 C-37.10916448 154.84937191 -34.26434156 152.1651159 -31 149.0625 C-6.28545386 124.90529628 13.43449668 88.71585133 14.28808594 53.76611328 C14.45670897 35.95614871 10.81936633 20.58056728 1.77734375 5.16015625 C0 2 0 2 0 0 Z " fill="#14352A" transform="translate(373,246)"/>
<path d="M0 0 C0.80824219 -0.01224609 1.61648437 -0.02449219 2.44921875 -0.03710938 C24.05605664 -0.08896579 45.57529828 14.20115513 60.52734375 28.921875 C61.26082031 29.66953125 61.99429688 30.4171875 62.75 31.1875 C55.49444204 38.04055986 48.23331873 44.78982784 40.43359375 51.02734375 C37.63717361 53.2783195 34.91644756 55.60535414 32.1875 57.9375 C14.18126301 72.91183847 -5.48439483 85.68190882 -26.5625 95.875 C-27.60607666 96.38039307 -28.64965332 96.88578613 -29.72485352 97.40649414 C-35.18862957 99.9770319 -40.32976892 101.97799042 -46.25 103.1875 C-46.74161725 101.87961261 -47.21741758 100.56578093 -47.6875 99.25 C-47.95433594 98.51910156 -48.22117188 97.78820312 -48.49609375 97.03515625 C-54.68865521 73.64460025 -51.23442506 44.9235462 -39.3984375 23.8984375 C-32.62095136 13.23267246 -24.58342796 4.04374681 -12.03125 0.57421875 C-8.01670103 0.01601601 -4.04856444 0.00316789 0 0 Z " fill="#14352A" transform="translate(110.25,250.8125)"/>
<path d="M0 0 C8.67362375 6.79354865 13.57023701 15.08799381 16.14453125 25.6796875 C17.36938618 36.79182869 16.08746534 47.22028749 12.14453125 57.6796875 C11.69335938 58.88367188 11.2421875 60.08765625 10.77734375 61.328125 C5.43190741 74.75107135 -2.02923533 88.24020955 -10.85546875 99.6796875 C-14.43927618 98.4155654 -16.90642984 97.03581694 -19.67578125 94.44140625 C-20.37058594 93.79292725 -21.06539063 93.14444824 -21.78125 92.47631836 C-22.50699219 91.78030518 -23.23273438 91.08429199 -23.98046875 90.3671875 C-24.73457031 89.64732666 -25.48867188 88.92746582 -26.265625 88.18579102 C-41.31119339 73.64013414 -55.89264806 57.06467495 -56.29296875 35.1796875 C-56.1923808 23.46692054 -52.22319691 15.00550717 -43.85546875 6.6796875 C-40.35963137 3.97257617 -36.75184689 1.76083903 -32.85546875 -0.3203125 C-32.23414063 -0.68125 -31.6128125 -1.0421875 -30.97265625 -1.4140625 C-22.16767073 -5.67836042 -8.30935513 -5.01109321 0 0 Z " fill="#14352A" transform="translate(292.85546875,61.3203125)"/>
</svg>
